<svg width="36" height="36" viewBox="0 0 36 36" fill="none" xmlns="http://www.w3.org/2000/svg">
  <!-- Background speech bubble outline (subtle) -->
  <path d="M6 8C6 5.24 8.24 3 11 3H23C25.76 3 28 5.24 28 8V17C28 19.76 25.76 22 23 22H16L11 27V22H11C8.24 22 6 19.76 6 17V8Z"
    stroke="#00d4ff" stroke-width="1.3" stroke-linejoin="round" fill="none" opacity="0.25"/>

  <!-- Question mark stem — bold curved body -->
  <path d="M11 13.5C11 10.74 12.46 8.47 14.8 7.35C17.15 6.23 19.8 6.8 21.8 9C23.8 11.2 23.2 13.8 21.2 15.5C19.9 16.6 18 17 16 19.2"
    stroke="#00d4ff" stroke-width="3.2" stroke-linecap="round" fill="none"/>

  <!-- Question mark bottom dot -->
  <circle cx="16" cy="25" r="2.5" fill="#06d6a0"/>

  <!-- Decorative network nodes on the curve -->
  <circle cx="16" cy="7.5" r="1.8" fill="#00b4d8"/>
  <circle cx="22.5" cy="9.5" r="1.4" fill="#f77f00"/>
  <circle cx="11" cy="13.5" r="1.4" fill="#0096c7"/>

  <!-- Node connecting lines -->
  <line x1="14.3" y1="7.5" x2="16" y2="7.5" stroke="#00b4d8" stroke-width="0.8" stroke-linecap="round"/>
  <line x1="21.1" y1="9.5" x2="22.5" y2="9.5" stroke="#f77f00" stroke-width="0.8" stroke-linecap="round"/>
  <line x1="12.4" y1="13.5" x2="11" y2="13.5" stroke="#0096c7" stroke-width="0.8" stroke-linecap="round"/>
</svg>